<svg xmlns="http://www.w3.org/2000/svg" viewBox="0 0 64 64">
  <defs>
    <linearGradient id="bgGradient" x1="0%" y1="0%" x2="100%" y2="100%">
      <stop offset="0%" stop-color="#10b981" />
      <stop offset="100%" stop-color="#0d9488" />
    </linearGradient>
    <linearGradient id="dotGradient" x1="0%" y1="0%" x2="100%" y2="0%">
      <stop offset="0%" stop-color="#facc15" />
      <stop offset="100%" stop-color="#fb923c" />
    </linearGradient>
    <filter id="shadow" x="-10%" y="-10%" width="120%" height="120%">
      <feDropShadow dx="0" dy="4" stdDeviation="4" flood-opacity="0.3" />
    </filter>
  </defs>
  
  <rect x="8" y="8" width="48" height="48" rx="14" fill="url(#bgGradient)" filter="url(#shadow)" />
  
  <g transform="translate(16, 16) scale(1.333)" fill="none" stroke="white" stroke-width="2" stroke-linecap="round" stroke-linejoin="round">
    <path d="M9.937 15.5A2 2 0 0 0 8.5 14.063l-6.135-1.582a.5.5 0 0 1 0-.962L8.5 9.936A2 2 0 0 0 9.937 8.5l1.582-6.135a.5.5 0 0 1 .963 0L14.063 8.5A2 2 0 0 0 15.5 9.937l6.135 1.581a.5.5 0 0 1 0 .964L15.5 14.063a2 2 0 0 0-1.437 1.437l-1.582 6.135a.5.5 0 0 1-.963 0z"/>
    <path d="M20 3v4"/>
    <path d="M22 5h-4"/>
    <path d="M4 17v2"/>
    <path d="M5 18H3"/>
  </g>
  
  <circle cx="56" cy="8" r="6" fill="url(#dotGradient)" />
</svg>
